# xmcd
#
# Track frame offsets:
#	150
#	16105
#	31710
#	49217
#	66417
#	86832
#	105277
#	119517
#	135199
#	153106
#	169111
#	184726
#	203384
#	219306
#	234911
#
# Disc length: 3427 seconds
#
# Revision: 0
# Processed by: cddbd v1.5.2PL0 Copyright (c) Steve Scherf et al.
# Submitted via: audiograbber 1.83.01
#
DISCID=b20d610f
DTITLE=Sound Choice - Country Hits - Vol. 152 SC8764
DYEAR=1900
DGENRE=Karaoke
TTITLE0=Chris Cagle - Country By The Grace Of God
TTITLE1=Joanna Janet - Since I've Seen You Last
TTITLE2=Sixwire - Look At Me Now
TTITLE3=Cledus T. Judd - Breath
TTITLE4=Chely Wright - Horoscope
TTITLE5=Diamond Rio - Beautiful Mess
TTITLE6=Brooks and Dunn - My Heart Is Lost To You
TTITLE7=Marie Sisters - Real Bad Mood
TTITLE8=Cyndi Thomson - I'm Gone
TTITLE9=Kenny Chesney - The Good Stuff
TTITLE10=Jo Dee Messina - Date To Dream
TTITLE11=Rebecca Lynn Howard - Forgive
TTITLE12=Phil Vassar - American Child
TTITLE13=Pinmonkey - Barbed Wire and Roses
TTITLE14=Tracy Byrd - Ten Rounds With Jose Cuervo
EXTD=
EXTT0=
EXTT1=
EXTT2=
EXTT3=
EXTT4=
EXTT5=
EXTT6=
EXTT7=
EXTT8=
EXTT9=
EXTT10=
EXTT11=
EXTT12=
EXTT13=
EXTT14=
PLAYORDER=
